# Blender 4.0.1
# www.blender.org
mtllib bevel_box.mtl
o bevel_box
v -1.006305 -1.012997 1.042264 0.0000 0.0000 0.0000
v -1.067735 -1.012997 0.980835 0.0000 0.0000 0.0000
v -1.006305 0.925573 1.042264 1.0000 0.0000 0.0000
v -1.006305 0.987003 0.980835 1.0000 0.1922 0.0000
v -1.067735 0.925573 0.980835 1.0000 0.0000 0.0000
v -1.067735 -1.012997 -0.896306 0.0000 1.0000 0.0000
v -1.006305 -1.012997 -0.957735 0.0000 1.0000 0.0000
v -1.006305 0.987003 -0.896306 1.0000 1.0000 0.0000
v -1.006305 0.925573 -0.957735 1.0000 1.0000 0.0000
v -1.067735 0.925573 -0.896306 1.0000 1.0000 0.0000
v 0.932265 -1.012997 0.980835 0.0000 0.0000 1.0000
v 0.870836 -1.012997 1.042264 0.0000 0.0000 1.0000
v 0.870836 0.987003 0.980835 1.0000 0.0000 1.0000
v 0.932265 0.925573 0.980835 1.0000 0.0000 1.0000
v 0.870836 -1.012997 -0.957735 0.0000 1.0000 1.0000
v 0.932265 -1.012997 -0.896306 0.0000 1.0000 1.0000
v 0.932265 0.925573 -0.896306 1.0000 1.0000 1.0000
v 0.870836 0.925573 -0.957735 1.0000 1.0000 1.0000
v 0.870836 0.925573 1.042264 1.0000 0.0000 1.0000
v 0.870836 0.987003 -0.896306 1.0000 1.0000 1.0000
vn 0.2971 -0.6303 0.7173
vn 0.3416 0.3416 0.8756
vn -0.3416 0.3416 0.8756
vn -0.2971 -0.6303 0.7173
vn 0.7173 -0.6303 -0.2971
vn 0.8756 0.3416 -0.3416
vn 0.8756 0.3416 0.3416
vn 0.7173 -0.6303 0.2971
vn 0.3416 0.8756 -0.3416
vn -0.3416 0.8756 -0.3416
vn -0.3416 0.8756 0.3416
vn 0.3416 0.8756 0.3416
vn -0.7173 -0.6303 0.2971
vn -0.8756 0.3416 0.3416
vn -0.8756 0.3416 -0.3416
vn -0.7173 -0.6303 -0.2971
vn -0.2971 -0.6303 -0.7173
vn -0.3416 0.3416 -0.8756
vn 0.3416 0.3416 -0.8756
vn 0.2971 -0.6303 -0.7173
vn -0.0000 -1.0000 -0.0000
vt 0.375000 0.757679
vt 0.617321 0.757679
vt 0.617321 0.992321
vt 0.375000 0.992321
vt 0.375000 0.507679
vt 0.617321 0.507679
vt 0.617321 0.742321
vt 0.375000 0.742321
vt 0.632679 0.507679
vt 0.867321 0.507679
vt 0.867321 0.742321
vt 0.632679 0.742321
vt 0.375000 0.007679
vt 0.617321 0.007679
vt 0.617321 0.242321
vt 0.375000 0.242321
vt 0.375000 0.257679
vt 0.617321 0.257679
vt 0.617321 0.492321
vt 0.375000 0.492321
vt 0.375000 0.000000
vt 0.617321 0.000000
vt 0.125000 0.507679
vt 0.132679 0.500000
vt 0.367321 0.500000
vt 0.367321 0.750000
vt 0.132679 0.750000
vt 0.125000 0.742321
vt 0.867321 0.750000
vt 0.875000 0.742321
vt 0.867321 0.500000
vt 0.875000 0.507679
vt 0.632679 0.750000
vt 0.625000 0.742321
vt 0.625000 0.507679
vt 0.632679 0.500000
s 1
f 12/1/1 19/2/2 3/3/3 1/4/4
f 16/5/5 17/6/6 14/7/7 11/8/8
f 20/9/9 8/10/10 4/11/11 13/12/12
f 2/13/13 5/14/14 10/15/15 6/16/16
f 7/17/17 9/18/18 18/19/19 15/20/20
f 1/21/4 3/22/3 5/14/14 2/13/13
f 9/18/18 7/17/17 6/16/16 10/15/15
f 17/6/6 16/5/5 15/20/20 18/19/19
f 19/2/2 12/1/1 11/8/8 14/7/7
s 0
f 6/23/21 7/24/21 15/25/21 16/5/21 11/8/21 12/26/21 1/27/21 2/28/21
s 1
f 3/29/3 4/11/11 5/30/14
f 8/10/10 9/31/18 10/32/15
f 13/12/12 19/33/2 14/34/7
f 20/9/9 17/35/6 18/36/19
f 4/11/11 8/10/10 10/32/15 5/30/14
f 8/10/10 20/9/9 18/36/19 9/31/18
f 20/9/9 13/12/12 14/7/7 17/6/6
f 13/12/12 4/11/11 3/29/3 19/33/2
