# Blender 4.0.1
# www.blender.org
mtllib long_box.mtl
o Long
v 0.035837 -0.014231 0.156262
v 0.035837 0.005620 0.156262
v -0.026912 0.028008 0.156262
v 0.035837 -0.014231 -0.156262
v 0.035837 0.005620 -0.156262
v -0.026912 0.028008 -0.156262
v -0.026912 -0.005167 0.156262
v -0.017849 -0.014231 0.156262
v -0.017849 -0.014231 -0.156262
v -0.026912 -0.005167 -0.156262
vn -1.0000 -0.0000 -0.0000
vn -0.0000 -0.0000 -1.0000
vn 1.0000 -0.0000 -0.0000
vn -0.0000 -0.0000 1.0000
vn 0.3360 0.9418 -0.0000
vn -0.7071 -0.7071 -0.0000
vn -0.0000 -1.0000 -0.0000
vt 0.970277 0.500000
vt 0.888255 0.500000
vt 0.888255 -0.000000
vt 0.970277 -0.000000
vt 0.858590 0.659302
vt 0.844090 0.673802
vt 0.762067 0.673802
vt 0.762067 0.500000
vt 0.858590 0.500000
vt 0.791732 0.500000
vt 0.791732 -0.000000
vt 0.888255 -0.000000
vt 0.858590 0.847605
vt 0.762067 0.847605
vt 0.858590 0.688302
vt 0.521407 -0.000000
vt 0.521407 0.500000
vt 0.347605 0.500000
vt 0.347605 0.000000
vt 0.680709 0.500000
vt 0.680709 -0.000000
vt 0.695209 -0.000000
vt 0.695209 0.500000
vt 0.521407 0.500000
vt 0.521407 -0.000000
s 0
usemtl ToyDrum.002
f 7/1/1 3/2/1 6/3/1 10/4/1
f 9/5/2 10/6/2 6/7/2 5/8/2 4/9/2
f 4/2/3 5/10/3 2/11/3 1/12/3
f 1/13/4 2/14/4 3/7/4 7/6/4 8/15/4
f 6/16/5 3/17/5 2/18/5 5/19/5
f 9/20/6 8/21/6 7/22/6 10/23/6
f 8/21/7 9/20/7 4/24/7 1/25/7
