# Blender 4.1.1
# www.blender.org
mtllib long_slanted.mtl
o LongSlanted
v 0.019886 -0.011834 0.069833
v 0.021042 -0.010679 0.069833
v 0.019886 -0.010679 0.071610
v 0.021042 -0.003194 0.069833
v 0.019886 -0.002038 0.069833
v 0.019886 -0.003194 0.071610
v -0.019886 -0.010679 0.071610
v -0.021042 -0.010679 0.069833
v -0.019886 0.011834 0.069833
v -0.021042 0.010679 0.069833
v -0.019886 0.010679 0.071610
v 0.019886 -0.011834 -0.069833
v 0.019886 -0.010679 -0.071610
v 0.021042 -0.010679 -0.069833
v 0.019886 -0.002038 -0.069833
v 0.021042 -0.003194 -0.069833
v 0.019886 -0.003194 -0.071610
v -0.021042 -0.010679 -0.069833
v -0.019886 -0.010679 -0.071610
v -0.019886 0.011834 -0.069833
v -0.019886 0.010679 -0.071610
v -0.021042 0.010679 -0.069833
v -0.019886 -0.011834 0.069833
v -0.019886 -0.011834 -0.069833
vn 1.0000 -0.0000 -0.0000
vn -0.0000 -0.0000 -1.0000
vn 0.3293 0.9442 -0.0000
vn -0.0000 -0.0000 1.0000
vn -1.0000 -0.0000 -0.0000
vn 0.6424 -0.6424 0.4179
vn 0.6424 0.6424 0.4179
vn -0.6424 -0.6424 0.4179
vn -0.6424 0.6424 0.4179
vn 0.6424 -0.6424 -0.4179
vn 0.6424 0.6424 -0.4179
vn -0.6424 -0.6424 -0.4179
vn -0.6424 0.6424 -0.4179
vn -0.0000 -0.8383 0.5453
vn 0.8383 -0.0000 0.5453
vn 0.2806 0.8046 0.5234
vn -0.8383 -0.0000 0.5453
vn -0.7071 -0.7071 -0.0000
vn -0.7071 0.7071 -0.0000
vn -0.8383 -0.0000 -0.5453
vn -0.0000 -0.8383 -0.5453
vn 0.2806 0.8046 -0.5233
vn 0.8383 -0.0000 -0.5453
vn 0.7071 -0.7071 -0.0000
vn 0.7071 0.7071 -0.0000
vn -0.0000 -1.0000 -0.0000
vt 0.008685 0.128882
vt 0.048461 0.128882
vt 0.048461 0.871117
vt 0.008685 0.871117
vt 0.241598 0.010635
vt 0.278978 0.117802
vt 0.055123 0.117802
vt 0.042024 0.080246
vt 0.281000 0.128882
vt 0.281000 0.871117
vt 0.057146 0.871117
vt 0.057146 0.128883
vt 0.042024 0.919754
vt 0.055123 0.882198
vt 0.278978 0.882198
vt 0.241598 0.989365
vt 0.403185 0.871118
vt 0.289686 0.871118
vt 0.289686 0.128882
vt 0.403185 0.128882
vt 0.000672 0.874466
vt 0.008685 0.882381
vt 0.056474 0.874466
vt 0.048461 0.882381
vt 0.411199 0.874466
vt 0.403185 0.882381
vt 0.281672 0.874466
vt 0.289686 0.882381
vt 0.000671 0.125534
vt 0.008685 0.117619
vt 0.056474 0.125534
vt 0.048461 0.117619
vt 0.411199 0.125534
vt 0.403185 0.117619
vt 0.281672 0.125534
vt 0.289686 0.117619
vt 0.237889 1.000000
vt 0.038314 0.930389
vt 0.411870 0.128882
vt 0.411870 0.871117
vt 0.038314 0.069611
vt 0.237889 -0.000000
vt 0.000000 0.871117
vt 0.000000 0.128883
vt 0.411870 0.742235
vt 0.411870 0.000000
vt 0.623236 0.000000
vt 0.623237 0.742235
s 0
usemtl LongSlanted
f 14/1/1 16/2/1 4/3/1 2/4/1
f 19/5/2 21/6/2 17/7/2 13/8/2
f 20/9/3 9/10/3 5/11/3 15/12/3
f 3/13/4 6/14/4 11/15/4 7/16/4
f 8/17/5 10/18/5 22/19/5 18/20/5
f 1/21/6 2/4/6 3/22/6
f 4/3/7 5/23/7 6/24/7
f 23/25/8 7/26/8 8/17/8
f 9/27/9 10/18/9 11/28/9
f 12/29/10 13/30/10 14/1/10
f 15/31/11 16/2/11 17/32/11
f 24/33/12 18/20/12 19/34/12
f 20/35/13 21/36/13 22/19/13
f 23/37/14 1/38/14 3/13/14 7/16/14
f 2/4/15 4/3/15 6/24/15 3/22/15
f 5/11/16 9/10/16 11/15/16 6/14/16
f 10/18/17 8/17/17 7/26/17 11/28/17
f 24/39/18 23/40/18 8/17/18 18/20/18
f 9/10/19 20/9/19 22/19/19 10/18/19
f 21/36/20 19/34/20 18/20/20 22/19/20
f 12/41/21 24/42/21 19/5/21 13/8/21
f 20/9/22 15/12/22 17/7/22 21/6/22
f 16/2/23 14/1/23 13/30/23 17/32/23
f 1/43/24 12/44/24 14/1/24 2/4/24
f 15/12/25 5/11/25 4/3/25 16/2/25
f 23/45/26 24/46/26 12/47/26 1/48/26
