# Blender 4.0.1
# www.blender.org
mtllib wide.mtl
o Wide
v 0.062953 -0.015913 0.045424
v 0.064109 -0.014758 0.045424
v 0.062953 -0.014758 0.046580
v 0.064109 0.014758 0.045424
v 0.062953 0.015913 0.045424
v 0.062953 0.014758 0.046580
v -0.062953 -0.014758 0.046580
v -0.064109 -0.014758 0.045424
v -0.062953 0.015913 0.045424
v -0.064109 0.014758 0.045424
v -0.062953 0.014758 0.046580
v 0.062953 -0.015913 -0.045424
v 0.062953 -0.014758 -0.046580
v 0.064109 -0.014758 -0.045424
v 0.062953 0.015913 -0.045424
v 0.064109 0.014758 -0.045424
v 0.062953 0.014758 -0.046580
v -0.064109 -0.014758 -0.045424
v -0.062953 -0.014758 -0.046580
v -0.062953 0.015913 -0.045424
v -0.062953 0.014758 -0.046580
v -0.064109 0.014758 -0.045424
v -0.062953 -0.015913 0.045424
v -0.062953 -0.015913 -0.045424
vn 0.8756 -0.3416 -0.3416
vn 0.8756 0.3416 -0.3416
vn 0.8756 0.3416 0.3416
vn 0.8756 -0.3416 0.3416
vn -0.3416 -0.3416 -0.8756
vn -0.3416 0.3416 -0.8756
vn 0.3416 0.3416 -0.8756
vn 0.3416 -0.3416 -0.8756
vn -0.3416 0.8756 -0.3416
vn -0.3416 0.8756 0.3416
vn 0.3416 0.8756 0.3416
vn 0.3416 0.8756 -0.3416
vn 0.3416 -0.3416 0.8756
vn 0.3416 0.3416 0.8756
vn -0.3416 0.3416 0.8756
vn -0.3416 -0.3416 0.8756
vn -0.8756 -0.3416 0.3416
vn -0.8756 0.3416 0.3416
vn -0.8756 0.3416 -0.3416
vn -0.8756 -0.3416 -0.3416
vn 0.3416 -0.8756 0.3416
vn -0.3416 -0.8756 0.3416
vn 0.3416 -0.8756 -0.3416
vn -0.3416 -0.8756 -0.3416
vn -0.0000 -1.0000 -0.0000
vt 0.500000 0.006610
vt 0.500000 0.125977
vt 0.132587 0.125977
vt 0.132587 0.006609
vt 0.625977 0.641783
vt 0.506609 0.641783
vt 0.506609 0.132587
vt 0.625977 0.132587
vt 0.500000 0.641783
vt 0.132587 0.641783
vt 0.132587 0.132587
vt 0.500000 0.132587
vt 0.006610 0.132587
vt 0.125977 0.132587
vt 0.125977 0.641783
vt 0.006610 0.641783
vt 0.132587 0.767760
vt 0.132587 0.648392
vt 0.500000 0.648392
vt 0.500000 0.767760
vt 0.129282 0.000885
vt 0.125977 0.006609
vt 0.129282 0.131701
vt 0.125977 0.125977
vt 0.129282 0.773484
vt 0.125977 0.767760
vt 0.129282 0.642668
vt 0.125977 0.648392
vt 0.503305 0.000885
vt 0.506609 0.006610
vt 0.503305 0.131701
vt 0.506609 0.125977
vt 0.503305 0.773484
vt 0.506609 0.767760
vt 0.503305 0.642668
vt 0.506609 0.648392
vt 0.000000 0.641783
vt 0.000000 0.132587
vt 0.500000 0.774369
vt 0.132587 0.774370
vt 0.632587 0.132587
vt 0.632587 0.641783
vt 0.132587 0.000000
vt 0.500000 0.000000
vt 1.000000 0.509196
vt 0.632587 0.509196
vt 0.632587 0.000000
vt 1.000000 0.000000
s 1
f 14/1/1 16/2/2 4/3/3 2/4/4
f 19/5/5 21/6/6 17/7/7 13/8/8
f 20/9/9 9/10/10 5/11/11 15/12/12
f 3/13/13 6/14/14 11/15/15 7/16/16
f 8/17/17 10/18/18 22/19/19 18/20/20
f 1/21/21 2/4/4 3/22/13
f 4/3/3 5/23/11 6/24/14
f 23/25/22 7/26/16 8/17/17
f 9/27/10 10/18/18 11/28/15
f 12/29/23 13/30/8 14/1/1
f 15/31/12 16/2/2 17/32/7
f 24/33/24 18/20/20 19/34/5
f 20/35/9 21/36/6 22/19/19
f 23/37/22 1/38/21 3/13/13 7/16/16
f 2/4/4 4/3/3 6/24/14 3/22/13
f 5/11/11 9/10/10 11/15/15 6/14/14
f 10/18/18 8/17/17 7/26/16 11/28/15
f 24/39/24 23/40/22 8/17/17 18/20/20
f 9/10/10 20/9/9 22/19/19 10/18/18
f 21/36/6 19/34/5 18/20/20 22/19/19
f 12/41/23 24/42/24 19/5/5 13/8/8
f 20/9/9 15/12/12 17/7/7 21/6/6
f 16/2/2 14/1/1 13/30/8 17/32/7
f 1/43/21 12/44/23 14/1/1 2/4/4
f 15/12/12 5/11/11 4/3/3 16/2/2
s 0
f 23/45/25 24/46/25 12/47/25 1/48/25
